# xmcd
# 
# Track frame offsets:
#     150
#     27458
#     44190
#     62820
#     76500
#     114905
# 
# Disc length: 2023
# 
# Revision: 15
# Processed by: cddbd v1.5.2PL0 Copyright (c) Steve Scherf et al.
# Submitted via: fre:ac v1.0.17
# 
DISCID=4707e506
DTITLE=Rainbow - Rising
DYEAR=1976
DGENRE=Hard Rock
TTITLE0=Tarot Woman
TTITLE1=Run With The Wolf
TTITLE2=Starstruck
TTITLE3=Do You Close Your Eyes
TTITLE4=Stargazer
TTITLE5=A Light In The Black
EXTD=Martin Birch
EXTT0=Blackmore, Dio
EXTT1=Blackmore, Dio
EXTT2=Blackmore, Dio
EXTT3=Blackmore, Dio
EXTT4=Blackmore, Dio
EXTT5=Blackmore, Dio
PLAYORDER=
